HIERARCHY
ROOT hip
{
	OFFSET 0.000000 0.000000 0.000000 
	CHANNELS 6 Xposition Yposition Zposition Xrotation Zrotation Yrotation
	JOINT abdomen
	{
		OFFSET 0.000000 3.402643 0.000000 
		CHANNELS 3 Xrotation Zrotation Yrotation
		JOINT chest
		{
			OFFSET 0.000000 8.438565 -0.680529 
			CHANNELS 3 Xrotation Zrotation Yrotation
			JOINT neck
			{
				OFFSET 0.000000 10.207942 -0.272212 
				CHANNELS 3 Xrotation Zrotation Yrotation
				JOINT head
				{
					OFFSET 0.000000 3.130431 0.000000 
					CHANNELS 3 Xrotation Zrotation Yrotation
					End Site
					{
						OFFSET 0.000000 3.130435 0.000000 
					}
				}
			}
			JOINT lCollar
			{
				OFFSET 3.470700 6.669187 -0.816635 
				CHANNELS 3 Yrotation Zrotation Xrotation
				JOINT lShldr
				{
					OFFSET 3.198488 0.000000 0.000000 
					CHANNELS 3 Zrotation Yrotation Xrotation
					JOINT lForeArm
					{
						OFFSET 10.139888 0.000000 0.000000 
						CHANNELS 3 Yrotation Zrotation Xrotation
						JOINT lHand
						{
							OFFSET 8.370511 0.000000 0.000000 
							CHANNELS 3 Zrotation Yrotation Xrotation
							End Site
							{
								OFFSET 4.083176 0.000000 0.000000 
							}
						}
					}
				}
			}
			JOINT rCollar
			{
				OFFSET -3.470700 6.669187 -0.816635 
				CHANNELS 3 Yrotation Zrotation Xrotation
				JOINT rShldr
				{
					OFFSET -3.198488 0.000000 0.000000 
					CHANNELS 3 Zrotation Yrotation Xrotation
					JOINT rForeArm
					{
						OFFSET -10.139888 0.000000 0.000000 
						CHANNELS 3 Yrotation Zrotation Xrotation
						JOINT rHand
						{
							OFFSET -8.370511 0.000000 0.000000 
							CHANNELS 3 Zrotation Yrotation Xrotation
							End Site
							{
								OFFSET -4.083176 0.000000 0.000000 
							}
						}
					}
				}
			}
		}
	}
	JOINT lThigh
	{
		OFFSET 5.308129 -1.633274 1.361059 
		CHANNELS 3 Xrotation Zrotation Yrotation
		JOINT lShin
		{
			OFFSET -2.041588 -20.007561 0.000000 
			CHANNELS 3 Xrotation Zrotation Yrotation
			JOINT lFoot
			{
				OFFSET 0.000000 -19.190928 -1.224953 
				CHANNELS 3 Xrotation Yrotation Zrotation
				End Site
				{
					OFFSET 0.000000 -2.449906 4.627600 
				}
			}
		}
	}
	JOINT rThigh
	{
		OFFSET -5.308129 -1.633274 1.361059 
		CHANNELS 3 Xrotation Zrotation Yrotation
		JOINT rShin
		{
			OFFSET 2.041588 -20.007561 0.000000 
			CHANNELS 3 Xrotation Zrotation Yrotation
			JOINT rFoot
			{
				OFFSET 0.000000 -19.190928 -1.224953 
				CHANNELS 3 Xrotation Yrotation Zrotation
				End Site
				{
					OFFSET 0.000000 -2.449906 4.627600 
				}
			}
		}
	}
}
MOTION
Frames: 20
Frame Time: 0.066668
-1.259199 43.137344 1.023507 0.822691 -5.223600 -4.778845 -1.855029 1.053870 0.766093 -0.795013 0.451659 0.328325 16.725395 -1.094467 0.312486 12.637414 4.026446 0.724544 2.000000 -7.000000 0.000000 92.016487 169.138046 -2.456490 38.045761 -0.322488 0.084293 0.045056 -0.004521 -138.540070 -2.000000 7.000000 0.000000 -94.999603 -163.528915 -4.190555 -40.933292 0.318089 0.089538 -0.055075 -0.003048 -134.025528 -7.415438 5.066589 12.202322 27.511202 3.710911 1.821735 -25.898548 12.604364 6.289911 3.439529 3.622489 -5.295094 3.588838 -4.198939 -0.129616 -14.909508 -8.005881 -2.510804 
-1.256292 43.139267 1.015436 0.840249 -5.281239 -4.802746 -1.885959 1.035297 0.766372 -0.808268 0.443699 0.328445 16.845285 -1.093930 0.329896 12.656343 4.023189 0.744643 2.000000 -7.000000 0.000000 92.020554 169.113144 -2.767219 37.935284 -0.322650 0.084085 0.045047 -0.003550 -138.193176 -2.000000 7.000000 0.000000 -94.960899 -163.506729 -4.236693 -40.797184 0.318300 0.089291 -0.055082 -0.003267 -133.837585 -7.421856 5.145924 12.236819 27.505095 3.694304 1.829412 -25.887457 12.567927 6.262672 3.402673 3.654435 -5.531893 3.584647 -4.190180 -0.139184 -14.726181 -7.789147 -2.449647 
-1.260666 43.137329 1.013654 0.818644 -5.387769 -4.882336 -1.923817 1.027369 0.788321 -0.824493 0.440301 0.337852 16.954777 -1.166064 0.341833 12.684669 3.990861 0.751122 2.000000 -7.000000 0.000000 92.044022 169.039230 -3.058529 37.844307 -0.322783 0.083913 0.045033 -0.002715 -137.894318 -2.000000 7.000000 0.000000 -94.902596 -163.493530 -4.282803 -40.651371 0.318526 0.089026 -0.055065 -0.003295 -133.719650 -7.450671 5.266230 12.339634 27.614008 3.703638 1.842453 -25.901857 12.467583 6.229352 3.405616 3.760866 -5.708950 3.584918 -4.189961 -0.139468 -14.564631 -7.577902 -2.371188 
-1.251343 43.139515 1.010172 0.845892 -5.367288 -4.925447 -1.954606 0.993667 0.780295 -0.837689 0.425857 0.334412 17.032568 -1.188687 0.406857 12.693598 3.968433 0.787061 2.000000 -7.000000 0.000000 92.047989 168.955322 -3.603769 37.714329 -0.322972 0.083668 0.045086 -0.000405 -137.068436 -2.000000 7.000000 0.000000 -94.853989 -163.421341 -4.358362 -40.593361 0.318620 0.088925 -0.055089 -0.003651 -133.483719 -7.487710 5.230771 12.386125 27.623323 3.715502 1.837334 -25.910368 12.457426 6.220573 3.368061 3.713390 -5.924116 3.597011 -4.191995 -0.130544 -14.363761 -7.385281 -2.299451 
-1.243741 43.139385 1.004957 0.824029 -5.307817 -5.031637 -2.005975 0.992150 0.804959 -0.859704 0.425207 0.344982 17.239859 -1.299091 0.410102 12.760926 3.925955 0.794660 2.000000 -7.000000 0.000000 92.022652 168.910416 -3.592278 37.662449 -0.323050 0.083572 0.045003 -0.001127 -137.326553 -2.000000 7.000000 0.000000 -94.864090 -163.399155 -4.375201 -40.427944 0.318875 0.088623 -0.055126 -0.004114 -133.208771 -7.426079 5.148895 12.429968 27.565800 3.706791 1.818063 -25.926279 12.502280 6.238944 3.355935 3.624291 -6.080726 3.587605 -4.200054 -0.130946 -14.186567 -7.214899 -2.229749 
-1.241015 43.137825 1.003445 0.802289 -5.326467 -5.109797 -2.098085 0.938735 0.833330 -0.899179 0.402315 0.357141 17.418249 -1.299244 0.429577 12.809155 3.912677 0.815230 2.000000 -7.000000 0.000000 92.046127 168.875519 -3.893268 37.610573 -0.323128 0.083475 0.044990 -0.000266 -137.018692 -2.000000 7.000000 0.000000 -94.795883 -163.277985 -4.470400 -40.369934 0.318968 0.088522 -0.055156 -0.004523 -132.952835 -7.417989 5.182528 12.552394 27.596260 3.710062 1.820516 -25.920444 12.424957 6.206779 3.370169 3.618016 -6.257047 3.586725 -4.201313 -0.141116 -14.027025 -7.002634 -2.139009 
-1.234457 43.138981 1.004051 0.790357 -5.345106 -5.159587 -2.046904 0.880350 0.846562 -0.877245 0.377293 0.362813 17.495640 -1.339687 0.498114 12.827783 3.890129 0.851149 2.000000 -7.000000 0.000000 92.050194 168.967606 -4.154898 37.470795 -0.323330 0.083211 0.044971 0.000433 -136.768814 -2.000000 7.000000 0.000000 -94.757278 -163.353790 -4.584659 -40.233921 0.319180 0.088275 -0.055216 -0.005176 -132.609909 -7.390647 5.200553 12.626286 27.616669 3.714972 1.822746 -25.902763 12.423643 6.201526 3.361623 3.609235 -6.465129 3.587380 -4.200768 -0.141365 -13.835219 -6.813322 -2.070284 
-1.230224 43.138454 0.999726 0.778424 -5.363735 -5.170298 -2.077764 0.830688 0.833017 -0.890470 0.356009 0.357008 17.590828 -1.387561 0.593683 12.846510 3.867581 0.907268 2.000000 -7.000000 0.000000 92.073761 169.029694 -4.328698 37.311512 -0.323562 0.082908 0.044948 0.001049 -136.548935 -2.000000 7.000000 0.000000 -94.708778 -163.350601 -4.689348 -40.127106 0.319347 0.088082 -0.055306 -0.006073 -132.178955 -7.404131 5.243375 12.710177 27.630642 3.698534 1.840646 -25.882242 12.305765 6.152498 3.346504 3.623973 -6.711183 3.588860 -4.199520 -0.141545 -13.680484 -6.610957 -1.996114 
-1.228778 43.138580 0.998339 0.786055 -5.343275 -5.192048 -2.115411 0.801790 0.851519 -0.906605 0.343624 0.364937 17.706820 -1.455564 0.664056 12.884639 3.835144 0.943637 2.000000 -7.000000 0.000000 92.126534 169.042786 -4.404967 37.191238 -0.323736 0.082681 0.044917 0.001474 -136.397064 -2.000000 7.000000 0.000000 -94.669968 -163.288406 -4.803937 -40.029995 0.319500 0.087909 -0.055336 -0.006482 -131.923019 -7.475573 5.181841 12.718213 27.649807 3.707090 1.824919 -25.802309 12.363887 6.176852 3.334109 3.584561 -6.962028 3.584456 -4.190452 -0.141343 -13.481815 -6.434083 -1.943137 
-1.227297 43.138195 0.999500 0.803510 -5.332574 -5.214858 -2.228240 0.781385 0.880501 -0.954961 0.334880 0.377357 17.885710 -1.501948 0.667774 12.932668 3.812226 0.962616 2.000000 -7.000000 0.000000 92.198807 168.919891 -4.530377 37.207756 -0.323716 0.082716 0.044895 0.002090 -136.176193 -2.000000 7.000000 0.000000 -94.601868 -163.158218 -4.938226 -39.962284 0.319608 0.087788 -0.055363 -0.006863 -131.678101 -7.507360 5.191984 12.843031 27.651804 3.701513 1.825437 -25.742722 12.311173 6.143078 3.294078 3.553984 -7.194772 3.585702 -4.189399 -0.142255 -13.341894 -6.168102 -1.848728 
-1.227143 43.138187 1.000882 0.771960 -5.351233 -5.253048 -2.313841 0.798784 0.883751 -0.991646 0.342336 0.378751 17.995102 -1.482051 0.700649 12.941795 3.809088 0.972305 2.000000 -7.000000 0.000000 92.183273 168.844986 -4.802156 37.106979 -0.323864 0.082526 0.044887 0.003062 -135.829300 -2.000000 7.000000 0.000000 -94.602066 -163.097031 -5.013755 -39.855473 0.319775 0.087596 -0.055407 -0.007381 -131.383163 -7.439859 5.230608 12.934087 27.653324 3.703078 1.837365 -25.727074 12.270399 6.088423 3.319813 3.569059 -7.417129 3.584332 -4.190588 -0.141965 -13.162972 -5.998191 -1.790199 
-1.225472 43.136887 1.004381 0.760092 -5.418683 -5.283968 -2.392788 0.792738 0.885615 -1.025481 0.339745 0.379550 18.136593 -1.319225 0.716215 12.991223 3.892260 0.969744 2.000000 -7.000000 0.000000 92.255539 168.781067 -4.868836 36.947704 -0.324094 0.082224 0.044855 0.003460 -135.686432 -2.000000 7.000000 0.000000 -94.573067 -163.034851 -5.089294 -39.768154 0.319912 0.087440 -0.055438 -0.007790 -131.128220 -7.503453 5.309699 13.088024 27.770376 3.723146 1.842552 -25.679371 12.185475 6.055250 3.322006 3.619361 -7.648213 3.584220 -4.190700 -0.142281 -12.987861 -5.826408 -1.708838 
-1.221903 43.132381 1.016561 0.699082 -5.417842 -5.387419 -2.451020 0.794609 0.892004 -1.050436 0.340547 0.382288 18.276382 -1.291838 0.733646 13.029751 3.888752 0.981393 2.000000 -7.000000 0.000000 92.259506 168.697159 -5.140636 36.866524 -0.324214 0.082071 0.044839 0.004240 -135.407562 -2.000000 7.000000 0.000000 -94.583061 -162.982666 -5.135503 -39.651543 0.320094 0.087229 -0.055468 -0.008199 -130.872284 -7.442567 5.275006 13.151162 27.792217 3.716396 1.842588 -25.719156 12.199988 6.069100 3.371779 3.590785 -7.803084 3.582619 -4.191095 -0.123147 -12.803797 -5.643486 -1.643085 
-1.220030 43.132893 1.030379 0.726362 -5.416902 -5.479689 -2.481877 0.770030 0.896568 -1.063662 0.330012 0.384244 18.356674 -1.290111 0.759285 13.028979 3.876095 0.998642 2.000000 -7.000000 0.000000 92.234177 168.691254 -5.529446 36.756046 -0.324375 0.081863 0.044823 0.005020 -135.128693 -2.000000 7.000000 0.000000 -94.554062 -162.901474 -5.191542 -39.574032 0.320217 0.087091 -0.055519 -0.008770 -130.558350 -7.442688 5.285927 13.234636 27.784901 3.706406 1.842789 -25.724661 12.187426 6.081691 3.336849 3.573052 -7.965847 3.586734 -4.200936 -0.133774 -12.671021 -5.439066 -1.568758 
-1.218156 43.128769 1.046625 0.714439 -5.445291 -5.558859 -2.512946 0.791393 0.890486 -1.076977 0.339168 0.381637 18.426865 -1.223475 0.806349 13.028809 3.911667 1.013781 2.000000 -7.000000 0.000000 92.160049 168.587357 -5.791525 36.752968 -0.324384 0.081861 0.044799 0.005582 -134.927811 -2.000000 7.000000 0.000000 -94.564156 -162.879272 -5.276742 -39.447716 0.320413 0.086863 -0.055535 -0.009071 -130.342392 -7.388216 5.323171 13.317599 27.777143 3.703240 1.853618 -25.784002 12.140846 6.057482 3.357190 3.574307 -8.151018 3.591238 -4.184737 -0.143308 -12.467221 -5.224642 -1.496929 
-1.224809 43.126968 1.059910 0.663317 -5.512790 -5.556630 -2.564596 0.803531 0.885277 -1.099112 0.344370 0.379405 18.452156 -1.151758 0.786489 13.008836 3.928199 1.004970 2.000000 -7.000000 0.000000 92.173714 168.552444 -5.897205 36.642487 -0.324544 0.081652 0.044768 0.006007 -134.775940 -2.000000 7.000000 0.000000 -94.456955 -162.827087 -5.449910 -39.311607 0.320625 0.086616 -0.055583 -0.009615 -130.037460 -7.353274 5.405218 13.360605 27.809004 3.691799 1.842839 -25.765059 12.085654 6.050435 3.411410 3.646975 -8.403610 3.585801 -4.202255 -0.144255 -12.284240 -5.018109 -1.408254 
-1.223127 43.125671 1.069443 0.686832 -5.566010 -5.575070 -2.566270 0.765416 0.889622 -1.099830 0.328036 0.381266 18.443501 -1.260390 0.774905 12.998000 3.868950 1.013660 2.000000 -7.000000 0.000000 92.195297 168.647003 -6.101140 36.533600 -0.324702 0.081445 0.044772 0.006697 -134.529007 -2.000000 7.000000 0.000000 -94.339996 -162.835007 -5.551050 -39.228901 0.320753 0.086466 -0.055607 -0.009901 -129.880997 -7.377650 5.482108 13.417267 27.902287 3.702830 1.855441 -25.802238 12.038184 6.016912 3.651777 3.602713 -8.496652 3.556778 -4.174668 -0.124501 -12.434593 -4.965832 -1.288264 
-1.218929 43.123093 1.083508 0.696575 -5.507410 -5.565530 -2.538759 0.752738 0.901360 -1.088040 0.322602 0.386297 18.424801 -1.224470 0.767081 12.978500 3.878850 1.004750 2.000000 -7.000000 0.000000 92.195297 168.647003 -6.091380 36.572701 -0.324646 0.081520 0.044765 0.006533 -134.587997 -2.000000 7.000000 0.000000 -94.349701 -162.826004 -5.482720 -39.228901 0.320753 0.086466 -0.055594 -0.009793 -129.919998 -7.370392 5.409647 13.417795 27.834158 3.699362 1.864811 -25.733816 12.040277 6.019878 3.661266 3.523348 -8.503201 3.547982 -4.170312 -0.143953 -12.438277 -4.953361 -1.292665 
-1.215538 43.122063 1.097098 0.696507 -5.448820 -5.545290 -2.490600 0.724915 0.928972 -1.067400 0.310678 0.398131 18.464899 -1.290490 0.737172 13.007500 3.849540 0.981978 2.000000 -7.000000 0.000000 92.205101 168.667007 -6.071800 36.572701 -0.324646 0.081520 0.044770 0.006643 -134.548996 -2.000000 7.000000 0.000000 -94.330200 -162.845001 -5.560790 -39.268002 0.320694 0.086538 -0.055611 -0.009928 -129.871002 -7.332520 5.330736 13.407602 27.792473 3.711510 1.847949 -25.741867 12.019836 6.017065 3.677634 3.465220 -8.516686 3.549329 -4.181493 -0.134217 -12.449258 -4.926939 -1.279632 
-1.213081 43.118191 1.099478 0.637678 -5.478180 -5.540050 -2.456441 0.702176 0.916736 -1.052760 0.300932 0.392887 18.329000 -1.298800 0.719407 12.948800 3.850280 0.978044 2.000000 -7.000000 0.000000 92.331902 168.539001 -5.574050 36.846100 -0.324256 0.082043 0.044730 0.005577 -134.929993 -2.000000 7.000000 0.000000 -94.447304 -162.794998 -5.092170 -39.619499 0.320161 0.087186 -0.055458 -0.008652 -130.330002 -7.289073 5.367597 13.444963 27.833904 3.701445 1.865339 -25.752966 11.979512 5.982020 3.480936 3.585285 -8.554780 3.594671 -4.207046 -0.134744 -12.242405 -4.900295 -1.386580 
